<svg width="95" height="26" viewBox="0 0 95 26" fill="none" xmlns="http://www.w3.org/2000/svg">
<path d="M10.792 1.352V16.568C10.792 17.896 10.32 18.864 9.376 19.472C8.432 20.064 7.176 20.36 5.608 20.36C4.04 20.36 2.776 20.064 1.816 19.472C0.872 18.864 0.4 17.896 0.4 16.568V9.392C0.4 8.064 0.872 7.104 1.816 6.512C2.76 5.904 4.016 5.6 5.584 5.6H7.672C7.992 5.6 8.152 5.88 8.152 6.44C8.152 7 7.992 7.28 7.672 7.28H5.584C3.408 7.28 2.32 7.904 2.32 9.152V16.808C2.32 18.056 3.408 18.68 5.584 18.68C7.776 18.68 8.872 18.056 8.872 16.808V1.352C8.872 0.984 9.192 0.8 9.832 0.8C10.472 0.8 10.792 0.984 10.792 1.352ZM26.3339 8.984V9.704C26.3339 11.064 26.0539 12 25.4939 12.512C24.9339 13.024 23.9099 13.352 22.4219 13.496L17.7419 13.952V16.808C17.7419 18.056 18.7819 18.68 20.8619 18.68C23.2299 18.68 24.4139 18.136 24.4139 17.048V16.136C24.4139 15.768 24.7339 15.584 25.3739 15.584C26.0139 15.584 26.3339 15.768 26.3339 16.136V16.808C26.3339 19.176 24.5739 20.36 21.0539 20.36C19.5019 20.36 18.2379 20.056 17.2619 19.448C16.3019 18.84 15.8219 17.88 15.8219 16.568V9.032C15.8219 7.704 16.3339 6.744 17.3579 6.152C18.3819 5.544 19.7179 5.24 21.3659 5.24C23.0139 5.24 24.2539 5.528 25.0859 6.104C25.9179 6.68 26.3339 7.64 26.3339 8.984ZM17.7419 8.792V12.272L22.2539 11.816C23.1659 11.72 23.7499 11.528 24.0059 11.24C24.2779 10.952 24.4139 10.44 24.4139 9.704V8.792C24.4139 7.544 23.3019 6.92 21.0779 6.92C18.8539 6.92 17.7419 7.544 17.7419 8.792ZM38.7346 19.592C38.2066 20.104 37.3106 20.36 36.0466 20.36C34.7826 20.36 33.8866 20.104 33.3586 19.592C32.8306 19.08 32.4706 18.24 32.2786 17.072L30.5026 6.464C30.4546 6.128 30.4306 5.944 30.4306 5.912C30.4306 5.624 30.7346 5.48 31.3426 5.48C31.9506 5.48 32.2866 5.664 32.3506 6.032L34.1506 16.808C34.2626 17.496 34.4386 17.984 34.6786 18.272C34.9346 18.544 35.3906 18.68 36.0466 18.68C36.7026 18.68 37.1506 18.544 37.3906 18.272C37.6466 17.984 37.8306 17.496 37.9426 16.808L39.7426 6.032C39.8066 5.664 40.1426 5.48 40.7506 5.48C41.3586 5.48 41.6626 5.624 41.6626 5.912C41.6626 5.944 41.6386 6.128 41.5906 6.464L39.8146 17.072C39.6226 18.24 39.2626 19.08 38.7346 19.592ZM46.807 17.744V19.784C46.807 20.168 46.463 20.36 45.775 20.36C45.103 20.36 44.767 20.168 44.767 19.784V17.744C44.767 17.36 45.103 17.168 45.775 17.168C46.463 17.168 46.807 17.36 46.807 17.744Z" fill="white"/>
<path d="M52.7631 6.032V17.192C52.7631 17.704 52.8831 18.184 53.1231 18.632C53.3631 19.064 53.4831 19.288 53.4831 19.304C53.4831 19.496 53.3311 19.704 53.0271 19.928C52.7231 20.136 52.4671 20.24 52.2591 20.24C51.9231 20.24 51.6031 19.952 51.2991 19.376C50.9951 18.784 50.8431 18.136 50.8431 17.432V6.032C50.8431 5.664 51.1631 5.48 51.8031 5.48C52.4431 5.48 52.7631 5.664 52.7631 6.032ZM52.8351 0.92V3.008C52.8351 3.408 52.4831 3.608 51.7791 3.608C51.0911 3.608 50.7471 3.408 50.7471 3.008V0.92C50.7471 0.519999 51.0911 0.319999 51.7791 0.319999C52.4831 0.319999 52.8351 0.519999 52.8351 0.92ZM64.1104 20H61.3024C59.8944 20 58.8784 19.712 58.2544 19.136C57.6304 18.56 57.3184 17.584 57.3184 16.208V16.016C57.3184 14.656 57.5984 13.72 58.1584 13.208C58.7184 12.696 59.7184 12.368 61.1584 12.224L65.3104 11.816V9.152C65.3104 7.904 64.2224 7.28 62.0464 7.28H58.7584C58.4384 7.28 58.2784 7 58.2784 6.44C58.2784 5.88 58.4384 5.6 58.7584 5.6H62.0464C63.6144 5.6 64.8704 5.904 65.8144 6.512C66.7584 7.104 67.2304 8.064 67.2304 9.392V16.472C67.2304 17.512 67.4144 18.336 67.7824 18.944C67.8944 19.136 67.9504 19.256 67.9504 19.304C67.9504 19.496 67.7984 19.704 67.4944 19.928C67.1904 20.136 66.9344 20.24 66.7264 20.24C66.3744 20.24 66.0464 19.912 65.7424 19.256C65.4544 18.584 65.3104 17.736 65.3104 16.712V13.496L61.3024 13.904C60.4384 14 59.8784 14.192 59.6224 14.48C59.3664 14.768 59.2384 15.28 59.2384 16.016V16.208C59.2384 16.976 59.3664 17.52 59.6224 17.84C59.8944 18.16 60.4544 18.32 61.3024 18.32H64.1104C64.4304 18.32 64.5904 18.6 64.5904 19.16C64.5904 19.72 64.4304 20 64.1104 20ZM78.8834 9.992V8.792C78.8834 7.544 78.1394 6.92 76.6514 6.92C75.1634 6.92 74.4194 7.544 74.4194 8.792V19.808C74.4194 20.176 74.0994 20.36 73.4594 20.36C72.8194 20.36 72.4994 20.176 72.4994 19.808V9.032C72.4994 7.704 72.8754 6.744 73.6274 6.152C74.3954 5.544 75.4034 5.24 76.6514 5.24C79.4194 5.24 80.8034 6.488 80.8034 8.984V9.992C80.8034 10.36 80.4834 10.544 79.8434 10.544C79.2034 10.544 78.8834 10.36 78.8834 9.992ZM87.1054 26H85.3774C85.0574 26 84.8974 25.72 84.8974 25.16C84.8974 24.6 85.0574 24.32 85.3774 24.32H87.1054C88.0014 24.32 88.6174 24.184 88.9534 23.912C89.2894 23.656 89.5214 23.168 89.6494 22.448L89.9854 20.36H88.5934C87.3294 20.36 86.4334 20.104 85.9054 19.592C85.3774 19.08 85.0174 18.24 84.8254 17.072L83.0734 6.512C83.0094 6.144 82.9774 5.944 82.9774 5.912C82.9774 5.624 83.2814 5.48 83.8894 5.48C84.4974 5.48 84.8334 5.664 84.8974 6.032L86.6974 16.808C86.8094 17.496 86.9854 17.984 87.2254 18.272C87.4814 18.544 87.9374 18.68 88.5934 18.68H90.2734L92.3854 6.032C92.4494 5.664 92.7694 5.48 93.3454 5.48C93.9214 5.48 94.2094 5.624 94.2094 5.912C94.2094 5.944 94.1854 6.128 94.1374 6.464L91.4734 22.208C91.2174 23.728 90.8094 24.736 90.2494 25.232C89.6894 25.744 88.6414 26 87.1054 26Z" fill="url(#paint0_linear_109_5)"/>
<defs>
<linearGradient id="paint0_linear_109_5" x1="52.831" y1="18.1311" x2="90.6806" y2="16.9649" gradientUnits="userSpaceOnUse">
<stop stop-color="#ECA2DF"/>
<stop offset="0.558681" stop-color="#DD0DB9"/>
<stop offset="1" stop-color="#71015E"/>
</linearGradient>
</defs>
</svg>
